<svg width="70" height="35" viewBox="0 0 70 35" fill="none" xmlns="http://www.w3.org/2000/svg">
<path d="M19 17.5049C19 17.7576 18.9205 18.0113 18.7614 18.2145C18.7315 18.2543 18.5923 18.4186 18.483 18.5255L18.4233 18.5838C17.5881 19.4694 15.5099 20.8011 14.456 21.2278C14.456 21.2375 13.8295 21.4913 13.5312 21.5H13.4915C13.0341 21.5 12.6065 21.2482 12.3878 20.84C12.2685 20.6154 12.1591 19.9642 12.1491 19.9554C12.0597 19.3712 12 18.4769 12 17.4951C12 16.4657 12.0597 15.5316 12.169 14.9581C12.169 14.9484 12.2784 14.4235 12.348 14.2485C12.4574 13.9967 12.6562 13.7819 12.9048 13.6458C13.1037 13.5496 13.3125 13.5 13.5312 13.5C13.7599 13.5107 14.1875 13.6555 14.3565 13.7236C15.4702 14.1513 17.598 15.551 18.4134 16.4064C18.5526 16.5425 18.7017 16.7087 18.7415 16.7467C18.9105 16.9605 19 17.223 19 17.5049Z" fill="#F4F6F9"/>
<path d="M32.688 15.112C32.688 16.04 32.368 16.8133 31.728 17.432C31.0987 18.04 30.1333 18.344 28.832 18.344H26.688V23H25.232V11.848H28.832C30.0907 11.848 31.0453 12.152 31.696 12.76C32.3573 13.368 32.688 14.152 32.688 15.112ZM28.832 17.144C29.6427 17.144 30.24 16.968 30.624 16.616C31.008 16.264 31.2 15.7627 31.2 15.112C31.2 13.736 30.4107 13.048 28.832 13.048H26.688V17.144H28.832ZM36.0336 11.16V23H34.5776V11.16H36.0336ZM38.0511 18.584C38.0511 17.688 38.2325 16.904 38.5951 16.232C38.9578 15.5493 39.4538 15.0213 40.0831 14.648C40.7231 14.2747 41.4325 14.088 42.2111 14.088C42.9791 14.088 43.6458 14.2533 44.2111 14.584C44.7765 14.9147 45.1978 15.3307 45.4751 15.832V14.232H46.9471V23H45.4751V21.368C45.1871 21.88 44.7551 22.3067 44.1791 22.648C43.6138 22.9787 42.9525 23.144 42.1951 23.144C41.4165 23.144 40.7125 22.952 40.0831 22.568C39.4538 22.184 38.9578 21.6453 38.5951 20.952C38.2325 20.2587 38.0511 19.4693 38.0511 18.584ZM45.4751 18.6C45.4751 17.9387 45.3418 17.3627 45.0751 16.872C44.8085 16.3813 44.4458 16.008 43.9871 15.752C43.5391 15.4853 43.0431 15.352 42.4991 15.352C41.9551 15.352 41.4591 15.48 41.0111 15.736C40.5631 15.992 40.2058 16.3653 39.9391 16.856C39.6725 17.3467 39.5391 17.9227 39.5391 18.584C39.5391 19.256 39.6725 19.8427 39.9391 20.344C40.2058 20.8347 40.5631 21.2133 41.0111 21.48C41.4591 21.736 41.9551 21.864 42.4991 21.864C43.0431 21.864 43.5391 21.736 43.9871 21.48C44.4458 21.2133 44.8085 20.8347 45.0751 20.344C45.3418 19.8427 45.4751 19.2613 45.4751 18.6ZM57.0396 14.232L51.7596 27.128H50.2556L51.9836 22.904L48.4476 14.232H50.0636L52.8156 21.336L55.5356 14.232H57.0396Z" fill="#F4F6F9"/>
<rect x="0.5" y="0.5" width="69" height="34" rx="5.5" stroke="url(#paint0_linear_1947_15788)"/>
<defs>
<linearGradient id="paint0_linear_1947_15788" x1="0" y1="0" x2="73.8681" y2="12.97" gradientUnits="userSpaceOnUse">
<stop stop-color="#FF82D4"/>
<stop offset="1" stop-color="#1B1378"/>
</linearGradient>
</defs>
</svg>
