<svg width="148" height="47" viewBox="0 0 148 47" fill="none" xmlns="http://www.w3.org/2000/svg">
<rect width="148" height="47" rx="8" fill="url(#paint0_linear_1909_15747)"/>
<path d="M39.44 23.272C40.0693 23.3893 40.5867 23.704 40.992 24.216C41.3973 24.728 41.6 25.3147 41.6 25.976C41.6 26.5733 41.4507 27.1013 41.152 27.56C40.864 28.008 40.4427 28.36 39.888 28.616C39.3333 28.872 38.6773 29 37.92 29H33.104V17.832H37.712C38.4693 17.832 39.12 17.9547 39.664 18.2C40.2187 18.4453 40.6347 18.7867 40.912 19.224C41.2 19.6613 41.344 20.1573 41.344 20.712C41.344 21.3627 41.168 21.9067 40.816 22.344C40.4747 22.7813 40.016 23.0907 39.44 23.272ZM35.344 22.44H37.392C37.9253 22.44 38.336 22.3227 38.624 22.088C38.912 21.8427 39.056 21.496 39.056 21.048C39.056 20.6 38.912 20.2533 38.624 20.008C38.336 19.7627 37.9253 19.64 37.392 19.64H35.344V22.44ZM37.6 27.176C38.144 27.176 38.5653 27.048 38.864 26.792C39.1733 26.536 39.328 26.1733 39.328 25.704C39.328 25.224 39.168 24.8507 38.848 24.584C38.528 24.3067 38.096 24.168 37.552 24.168H35.344V27.176H37.6ZM51.8333 20.136V29H49.5773V27.88C49.2893 28.264 48.9106 28.568 48.4413 28.792C47.9826 29.0053 47.4813 29.112 46.9373 29.112C46.2439 29.112 45.6306 28.968 45.0972 28.68C44.5639 28.3813 44.1426 27.9493 43.8333 27.384C43.5346 26.808 43.3852 26.1253 43.3852 25.336V20.136H45.6253V25.016C45.6253 25.72 45.8013 26.264 46.1533 26.648C46.5053 27.0213 46.9853 27.208 47.5933 27.208C48.2119 27.208 48.6973 27.0213 49.0493 26.648C49.4013 26.264 49.5773 25.72 49.5773 25.016V20.136H51.8333ZM62.6034 20.136L57.1154 33.192H54.7314L56.6514 28.776L53.0994 20.136H55.6114L57.8994 26.328L60.2194 20.136H62.6034ZM75.3834 17.832V19.64H72.4074V29H70.1674V19.64H67.1914V17.832H75.3834ZM78.2338 19.08C77.8391 19.08 77.5084 18.9573 77.2418 18.712C76.9858 18.456 76.8578 18.1413 76.8578 17.768C76.8578 17.3947 76.9858 17.0853 77.2418 16.84C77.5084 16.584 77.8391 16.456 78.2338 16.456C78.6284 16.456 78.9538 16.584 79.2098 16.84C79.4764 17.0853 79.6098 17.3947 79.6098 17.768C79.6098 18.1413 79.4764 18.456 79.2098 18.712C78.9538 18.9573 78.6284 19.08 78.2338 19.08ZM79.3378 20.136V29H77.0978V20.136H79.3378ZM81.0549 24.568C81.0549 23.6507 81.2415 22.8507 81.6149 22.168C81.9882 21.4747 82.5055 20.9413 83.1669 20.568C83.8282 20.184 84.5855 19.992 85.4389 19.992C86.5375 19.992 87.4442 20.2693 88.1589 20.824C88.8842 21.368 89.3695 22.136 89.6149 23.128H87.1989C87.0709 22.744 86.8522 22.4453 86.5429 22.232C86.2442 22.008 85.8709 21.896 85.4229 21.896C84.7829 21.896 84.2762 22.1307 83.9029 22.6C83.5295 23.0587 83.3429 23.7147 83.3429 24.568C83.3429 25.4107 83.5295 26.0667 83.9029 26.536C84.2762 26.9947 84.7829 27.224 85.4229 27.224C86.3295 27.224 86.9215 26.8187 87.1989 26.008H89.6149C89.3695 26.968 88.8842 27.7307 88.1589 28.296C87.4335 28.8613 86.5269 29.144 85.4389 29.144C84.5855 29.144 83.8282 28.9573 83.1669 28.584C82.5055 28.2 81.9882 27.6667 81.6149 26.984C81.2415 26.2907 81.0549 25.4853 81.0549 24.568ZM96.5839 29L93.5759 25.224V29H91.3359V17.16H93.5759V23.896L96.5519 20.136H99.4639L95.5599 24.584L99.4959 29H96.5839ZM109 24.376C109 24.696 108.978 24.984 108.936 25.24H102.456C102.509 25.88 102.733 26.3813 103.128 26.744C103.522 27.1067 104.008 27.288 104.584 27.288C105.416 27.288 106.008 26.9307 106.36 26.216H108.776C108.52 27.0693 108.029 27.7733 107.304 28.328C106.578 28.872 105.688 29.144 104.632 29.144C103.778 29.144 103.01 28.9573 102.328 28.584C101.656 28.2 101.128 27.6613 100.744 26.968C100.37 26.2747 100.184 25.4747 100.184 24.568C100.184 23.6507 100.37 22.8453 100.744 22.152C101.117 21.4587 101.64 20.9253 102.312 20.552C102.984 20.1787 103.757 19.992 104.632 19.992C105.474 19.992 106.226 20.1733 106.888 20.536C107.56 20.8987 108.077 21.416 108.44 22.088C108.813 22.7493 109 23.512 109 24.376ZM106.68 23.736C106.669 23.16 106.461 22.7013 106.056 22.36C105.65 22.008 105.154 21.832 104.568 21.832C104.013 21.832 103.544 22.0027 103.16 22.344C102.786 22.6747 102.557 23.1387 102.472 23.736H106.68ZM113.323 21.976V26.264C113.323 26.5627 113.392 26.7813 113.531 26.92C113.68 27.048 113.925 27.112 114.267 27.112H115.307V29H113.899C112.011 29 111.067 28.0827 111.067 26.248V21.976H110.011V20.136H111.067V17.944H113.323V20.136H115.307V21.976H113.323Z" fill="#F4F6F9"/>
<defs>
<linearGradient id="paint0_linear_1909_15747" x1="0" y1="0" x2="149.563" y2="41.3466" gradientUnits="userSpaceOnUse">
<stop stop-color="#FF82D4"/>
<stop offset="1" stop-color="#1B1378"/>
</linearGradient>
</defs>
</svg>
