<svg width="63" height="35" viewBox="0 0 63 35" fill="none" xmlns="http://www.w3.org/2000/svg">
<path d="M22.448 11.848L18.24 23H16.56L12.352 11.848H13.904L17.408 21.464L20.912 11.848H22.448ZM24.8765 12.808C24.5992 12.808 24.3645 12.712 24.1725 12.52C23.9805 12.328 23.8845 12.0933 23.8845 11.816C23.8845 11.5387 23.9805 11.304 24.1725 11.112C24.3645 10.92 24.5992 10.824 24.8765 10.824C25.1432 10.824 25.3672 10.92 25.5485 11.112C25.7405 11.304 25.8365 11.5387 25.8365 11.816C25.8365 12.0933 25.7405 12.328 25.5485 12.52C25.3672 12.712 25.1432 12.808 24.8765 12.808ZM25.5805 14.232V23H24.1245V14.232H25.5805ZM36.142 18.28C36.142 18.5573 36.126 18.8507 36.094 19.16H29.086C29.1393 20.024 29.4327 20.7013 29.966 21.192C30.51 21.672 31.166 21.912 31.934 21.912C32.5633 21.912 33.086 21.768 33.502 21.48C33.9287 21.1813 34.2273 20.7867 34.398 20.296H35.966C35.7313 21.1387 35.262 21.8267 34.558 22.36C33.854 22.8827 32.9793 23.144 31.934 23.144C31.102 23.144 30.3553 22.9573 29.694 22.584C29.0433 22.2107 28.5313 21.6827 28.158 21C27.7847 20.3067 27.598 19.5067 27.598 18.6C27.598 17.6933 27.7793 16.8987 28.142 16.216C28.5047 15.5333 29.0113 15.0107 29.662 14.648C30.3233 14.2747 31.0807 14.088 31.934 14.088C32.766 14.088 33.502 14.2693 34.142 14.632C34.782 14.9947 35.2727 15.496 35.614 16.136C35.966 16.7653 36.142 17.48 36.142 18.28ZM34.638 17.976C34.638 17.4213 34.5153 16.9467 34.27 16.552C34.0247 16.1467 33.6887 15.8427 33.262 15.64C32.846 15.4267 32.382 15.32 31.87 15.32C31.134 15.32 30.5047 15.5547 29.982 16.024C29.47 16.4933 29.1767 17.144 29.102 17.976H34.638ZM49.8239 14.232L47.0879 23H45.5839L43.4719 16.04L41.3599 23H39.8559L37.1039 14.232H38.5919L40.6079 21.592L42.7839 14.232H44.2719L46.3999 21.608L48.3839 14.232H49.8239Z" fill="#394452"/>
<rect x="0.5" y="0.5" width="62" height="34" rx="5.5" stroke="#394452"/>
</svg>
