<svg width="232" height="55" viewBox="0 0 232 55" fill="none" xmlns="http://www.w3.org/2000/svg">
<rect width="232" height="55" rx="12" fill="url(#paint0_linear_1905_15736)"/>
<path d="M75.762 32.002H79.902V34H73.242V21.436H75.762V32.002ZM85.9317 34.162C84.9717 34.162 84.1077 33.952 83.3397 33.532C82.5717 33.1 81.9657 32.494 81.5217 31.714C81.0897 30.934 80.8737 30.034 80.8737 29.014C80.8737 27.994 81.0957 27.094 81.5397 26.314C81.9957 25.534 82.6137 24.934 83.3937 24.514C84.1737 24.082 85.0437 23.866 86.0037 23.866C86.9637 23.866 87.8337 24.082 88.6137 24.514C89.3937 24.934 90.0057 25.534 90.4497 26.314C90.9057 27.094 91.1337 27.994 91.1337 29.014C91.1337 30.034 90.8997 30.934 90.4317 31.714C89.9757 32.494 89.3517 33.1 88.5597 33.532C87.7797 33.952 86.9037 34.162 85.9317 34.162ZM85.9317 31.966C86.3877 31.966 86.8137 31.858 87.2097 31.642C87.6177 31.414 87.9417 31.078 88.1817 30.634C88.4217 30.19 88.5417 29.65 88.5417 29.014C88.5417 28.066 88.2897 27.34 87.7857 26.836C87.2937 26.32 86.6877 26.062 85.9677 26.062C85.2477 26.062 84.6417 26.32 84.1497 26.836C83.6697 27.34 83.4297 28.066 83.4297 29.014C83.4297 29.962 83.6637 30.694 84.1317 31.21C84.6117 31.714 85.2117 31.966 85.9317 31.966ZM96.8882 23.866C97.6322 23.866 98.2862 24.016 98.8502 24.316C99.4142 24.604 99.8582 24.982 100.182 25.45V24.028H102.72V34.072C102.72 34.996 102.534 35.818 102.162 36.538C101.79 37.27 101.232 37.846 100.488 38.266C99.7442 38.698 98.8442 38.914 97.7882 38.914C96.3722 38.914 95.2082 38.584 94.2962 37.924C93.3962 37.264 92.8862 36.364 92.7662 35.224H95.2682C95.4002 35.68 95.6822 36.04 96.1142 36.304C96.5582 36.58 97.0922 36.718 97.7162 36.718C98.4482 36.718 99.0422 36.496 99.4982 36.052C99.9542 35.62 100.182 34.96 100.182 34.072V32.524C99.8582 32.992 99.4082 33.382 98.8322 33.694C98.2682 34.006 97.6202 34.162 96.8882 34.162C96.0482 34.162 95.2802 33.946 94.5842 33.514C93.8882 33.082 93.3362 32.476 92.9282 31.696C92.5322 30.904 92.3342 29.998 92.3342 28.978C92.3342 27.97 92.5322 27.076 92.9282 26.296C93.3362 25.516 93.8822 24.916 94.5662 24.496C95.2622 24.076 96.0362 23.866 96.8882 23.866ZM100.182 29.014C100.182 28.402 100.062 27.88 99.8222 27.448C99.5822 27.004 99.2582 26.668 98.8502 26.44C98.4422 26.2 98.0042 26.08 97.5362 26.08C97.0682 26.08 96.6362 26.194 96.2402 26.422C95.8442 26.65 95.5202 26.986 95.2682 27.43C95.0282 27.862 94.9082 28.378 94.9082 28.978C94.9082 29.578 95.0282 30.106 95.2682 30.562C95.5202 31.006 95.8442 31.348 96.2402 31.588C96.6482 31.828 97.0802 31.948 97.5362 31.948C98.0042 31.948 98.4422 31.834 98.8502 31.606C99.2582 31.366 99.5822 31.03 99.8222 30.598C100.062 30.154 100.182 29.626 100.182 29.014ZM106.459 22.84C106.015 22.84 105.643 22.702 105.343 22.426C105.055 22.138 104.911 21.784 104.911 21.364C104.911 20.944 105.055 20.596 105.343 20.32C105.643 20.032 106.015 19.888 106.459 19.888C106.903 19.888 107.269 20.032 107.557 20.32C107.857 20.596 108.007 20.944 108.007 21.364C108.007 21.784 107.857 22.138 107.557 22.426C107.269 22.702 106.903 22.84 106.459 22.84ZM107.701 24.028V34H105.181V24.028H107.701ZM115.717 23.884C116.905 23.884 117.865 24.262 118.597 25.018C119.329 25.762 119.695 26.806 119.695 28.15V34H117.175V28.492C117.175 27.7 116.977 27.094 116.581 26.674C116.185 26.242 115.645 26.026 114.961 26.026C114.265 26.026 113.713 26.242 113.305 26.674C112.909 27.094 112.711 27.7 112.711 28.492V34H110.191V24.028H112.711V25.27C113.047 24.838 113.473 24.502 113.989 24.262C114.517 24.01 115.093 23.884 115.717 23.884Z" fill="white"/>
<path fill-rule="evenodd" clip-rule="evenodd" d="M147.886 17.5H152.925C155.445 17.5 157.5 19.5 157.5 21.94V33.06C157.5 35.51 155.445 37.5 152.905 37.5H147.876C145.356 37.5 143.291 35.51 143.291 33.07V28.27H149.693L148.041 29.87C147.731 30.17 147.731 30.66 148.041 30.96C148.196 31.11 148.402 31.18 148.609 31.18C148.805 31.18 149.012 31.11 149.167 30.96L152.182 28.05C152.337 27.91 152.419 27.71 152.419 27.5C152.419 27.3 152.337 27.1 152.182 26.96L149.167 24.05C148.857 23.75 148.351 23.75 148.041 24.05C147.731 24.35 147.731 24.84 148.041 25.14L149.693 26.73H143.291V21.95C143.291 19.5 145.356 17.5 147.886 17.5ZM138.5 27.4999C138.5 27.0799 138.855 26.7299 139.282 26.7299H143.291V28.2699H139.282C138.855 28.2699 138.5 27.9299 138.5 27.4999Z" fill="#F4F6F9"/>
<defs>
<linearGradient id="paint0_linear_1905_15736" x1="0" y1="0" x2="221.932" y2="82.1861" gradientUnits="userSpaceOnUse">
<stop stop-color="#FF82D4"/>
<stop offset="1" stop-color="#1B1378"/>
</linearGradient>
</defs>
</svg>
