<svg width="152" height="47" viewBox="0 0 152 47" fill="none" xmlns="http://www.w3.org/2000/svg">
<rect width="152" height="47" rx="8" fill="url(#paint0_linear_1948_16311)"/>
<path d="M35.344 17.832V29H33.104V17.832H35.344ZM42.5491 20.008C43.6051 20.008 44.4585 20.344 45.1091 21.016C45.7598 21.6773 46.0851 22.6053 46.0851 23.8V29H43.8451V24.104C43.8451 23.4 43.6691 22.8613 43.3171 22.488C42.9651 22.104 42.4851 21.912 41.8771 21.912C41.2585 21.912 40.7678 22.104 40.4051 22.488C40.0531 22.8613 39.8771 23.4 39.8771 24.104V29H37.6371V20.136H39.8771V21.24C40.1758 20.856 40.5545 20.5573 41.0131 20.344C41.4825 20.12 41.9945 20.008 42.5491 20.008ZM51.6873 29.144C50.9619 29.144 50.3113 29.016 49.7352 28.76C49.1592 28.4933 48.7006 28.136 48.3592 27.688C48.0286 27.24 47.8472 26.744 47.8152 26.2H50.0712C50.1139 26.5413 50.2793 26.824 50.5673 27.048C50.8659 27.272 51.2339 27.384 51.6712 27.384C52.0979 27.384 52.4286 27.2987 52.6632 27.128C52.9086 26.9573 53.0312 26.7387 53.0312 26.472C53.0312 26.184 52.8819 25.9707 52.5833 25.832C52.2952 25.6827 51.8312 25.5227 51.1912 25.352C50.5299 25.192 49.9859 25.0267 49.5592 24.856C49.1432 24.6853 48.7806 24.424 48.4712 24.072C48.1726 23.72 48.0232 23.2453 48.0232 22.648C48.0232 22.1573 48.1619 21.7093 48.4392 21.304C48.7272 20.8987 49.1326 20.5787 49.6553 20.344C50.1886 20.1093 50.8126 19.992 51.5273 19.992C52.5833 19.992 53.4259 20.2587 54.0553 20.792C54.6846 21.3147 55.0313 22.024 55.0953 22.92H52.9513C52.9193 22.568 52.7699 22.2907 52.5033 22.088C52.2473 21.8747 51.9006 21.768 51.4633 21.768C51.0579 21.768 50.7433 21.8427 50.5192 21.992C50.3059 22.1413 50.1992 22.3493 50.1992 22.616C50.1992 22.9147 50.3486 23.144 50.6472 23.304C50.9459 23.4533 51.4099 23.608 52.0392 23.768C52.6792 23.928 53.2072 24.0933 53.6233 24.264C54.0393 24.4347 54.3966 24.7013 54.6953 25.064C55.0046 25.416 55.1646 25.8853 55.1753 26.472C55.1753 26.984 55.0313 27.4427 54.7433 27.848C54.4659 28.2533 54.0606 28.5733 53.5273 28.808C53.0046 29.032 52.3912 29.144 51.6873 29.144ZM59.702 21.976V26.264C59.702 26.5627 59.7713 26.7813 59.91 26.92C60.0593 27.048 60.3047 27.112 60.646 27.112H61.686V29H60.278C58.39 29 57.446 28.0827 57.446 26.248V21.976H56.39V20.136H57.446V17.944H59.702V20.136H61.686V21.976H59.702ZM62.8011 24.536C62.8011 23.64 62.9771 22.8453 63.3291 22.152C63.6918 21.4587 64.1771 20.9253 64.7851 20.552C65.4038 20.1787 66.0918 19.992 66.8491 19.992C67.5105 19.992 68.0865 20.1253 68.5771 20.392C69.0785 20.6587 69.4785 20.9947 69.7771 21.4V20.136H72.0331V29H69.7771V27.704C69.4891 28.12 69.0891 28.4667 68.5771 28.744C68.0758 29.0107 67.4945 29.144 66.8331 29.144C66.0865 29.144 65.4038 28.952 64.7851 28.568C64.1771 28.184 63.6918 27.6453 63.3291 26.952C62.9771 26.248 62.8011 25.4427 62.8011 24.536ZM69.7771 24.568C69.7771 24.024 69.6705 23.56 69.4571 23.176C69.2438 22.7813 68.9558 22.4827 68.5931 22.28C68.2305 22.0667 67.8411 21.96 67.4251 21.96C67.0091 21.96 66.6251 22.0613 66.2731 22.264C65.9211 22.4667 65.6331 22.7653 65.4091 23.16C65.1958 23.544 65.0891 24.0027 65.0891 24.536C65.0891 25.0693 65.1958 25.5387 65.4091 25.944C65.6331 26.3387 65.9211 26.6427 66.2731 26.856C66.6358 27.0693 67.0198 27.176 67.4251 27.176C67.8411 27.176 68.2305 27.0747 68.5931 26.872C68.9558 26.6587 69.2438 26.36 69.4571 25.976C69.6705 25.5813 69.7771 25.112 69.7771 24.568ZM76.5409 17.16V29H74.3009V17.16H76.5409ZM81.074 17.16V29H78.834V17.16H81.074ZM96.5236 17.832V29H94.2836V24.248H89.4996V29H87.2596V17.832H89.4996V22.424H94.2836V17.832H96.5236ZM107.176 20.136V29H104.92V27.88C104.632 28.264 104.254 28.568 103.784 28.792C103.326 29.0053 102.824 29.112 102.28 29.112C101.587 29.112 100.974 28.968 100.44 28.68C99.907 28.3813 99.4857 27.9493 99.1764 27.384C98.8777 26.808 98.7284 26.1253 98.7284 25.336V20.136H100.968V25.016C100.968 25.72 101.144 26.264 101.496 26.648C101.848 27.0213 102.328 27.208 102.936 27.208C103.555 27.208 104.04 27.0213 104.392 26.648C104.744 26.264 104.92 25.72 104.92 25.016V20.136H107.176ZM111.707 21.432C111.995 21.0053 112.389 20.6587 112.891 20.392C113.403 20.1253 113.984 19.992 114.635 19.992C115.392 19.992 116.075 20.1787 116.683 20.552C117.301 20.9253 117.787 21.4587 118.139 22.152C118.501 22.8347 118.683 23.6293 118.683 24.536C118.683 25.4427 118.501 26.248 118.139 26.952C117.787 27.6453 117.301 28.184 116.683 28.568C116.075 28.952 115.392 29.144 114.635 29.144C113.973 29.144 113.392 29.016 112.891 28.76C112.4 28.4933 112.005 28.152 111.707 27.736V29H109.467V17.16H111.707V21.432ZM116.395 24.536C116.395 24.0027 116.283 23.544 116.059 23.16C115.845 22.7653 115.557 22.4667 115.195 22.264C114.843 22.0613 114.459 21.96 114.043 21.96C113.637 21.96 113.253 22.0667 112.891 22.28C112.539 22.4827 112.251 22.7813 112.027 23.176C111.813 23.5707 111.707 24.0347 111.707 24.568C111.707 25.1013 111.813 25.5653 112.027 25.96C112.251 26.3547 112.539 26.6587 112.891 26.872C113.253 27.0747 113.637 27.176 114.043 27.176C114.459 27.176 114.843 27.0693 115.195 26.856C115.557 26.6427 115.845 26.3387 116.059 25.944C116.283 25.5493 116.395 25.08 116.395 24.536Z" fill="#F4F6F9"/>
<defs>
<linearGradient id="paint0_linear_1948_16311" x1="0" y1="0" x2="153.01" y2="43.4428" gradientUnits="userSpaceOnUse">
<stop stop-color="#FF82D4"/>
<stop offset="1" stop-color="#1B1378"/>
</linearGradient>
</defs>
</svg>
